# xmcd CD database file
#
# Track frame offsets:
#	150
#	2898
#	25456
#	44020
#	68370
#	95880
#	97454
#	99904
#	114389
#	145401
#	157473
#	194023
#
# Disc length: 2793 seconds
#
# Revision: 0
# Processed by: cddbd v1.5.1PL0 Copyright (c) Steve Scherf et al.
# Submitted via: CDex 1.51
#
DISCID=b50ae70c
DTITLE=Ne Zhdali - SHE-YE-YE
DYEAR=1991
DGENRE=Progressive Rock
TTITLE0=Interlude 1
TTITLE1=Rhino 2
TTITLE2=Knife
TTITLE3=Rhino 1
TTITLE4=March
TTITLE5=Interlude 2, 3
TTITLE6=Dedicated to Marina D.
TTITLE7=Love song
TTITLE8=Conquestadores
TTITLE9=She-ye-ye
TTITLE10=Melodia
TTITLE11=Bossa 3 (melodia)
EXTD=YEAR: 1991
EXTT0=
EXTT1=
EXTT2=
EXTT3=
EXTT4=
EXTT5=
EXTT6=
EXTT7=
EXTT8=
EXTT9=
EXTT10=
EXTT11=
PLAYORDER=
